<mxfile host="app.diagrams.net" modified="2020-12-08T14:38:35.927Z" agent="5.0 (Macintosh; Intel Mac OS X 10_15_6) AppleWebKit/605.1.15 (KHTML, like Gecko) Version/14.0.1 Safari/605.1.15" etag="iq05vzDCM-5lT3BRUkcl" version="13.11.0" type="github">
  <diagram id="lL-YtVDqRAsUGj0jHCcP" name="Page-1">
    <mxGraphModel dx="1255" dy="941" grid="0" gridSize="10" guides="1" tooltips="1" connect="1" arrows="1" fold="1" page="1" pageScale="1" pageWidth="827" pageHeight="1169" math="0" shadow="0">
      <root>
        <mxCell id="0" />
        <mxCell id="1" parent="0" />
        <mxCell id="wO5dHww1MnmD-yGlkFJn-1" value="" style="rounded=0;whiteSpace=wrap;html=1;" parent="1" vertex="1">
          <mxGeometry x="80" y="100" width="120" height="60" as="geometry" />
        </mxCell>
        <mxCell id="wO5dHww1MnmD-yGlkFJn-2" value="&lt;font style=&quot;font-size: 21px&quot;&gt;고객&lt;/font&gt;" style="text;html=1;strokeColor=none;fillColor=none;align=center;verticalAlign=middle;whiteSpace=wrap;rounded=0;" parent="1" vertex="1">
          <mxGeometry x="100" y="110" width="80" height="40" as="geometry" />
        </mxCell>
        <mxCell id="wO5dHww1MnmD-yGlkFJn-3" value="고객이름" style="text;html=1;strokeColor=none;fillColor=none;align=center;verticalAlign=middle;whiteSpace=wrap;rounded=0;fontStyle=4;fontSize=14;" parent="1" vertex="1">
          <mxGeometry x="20" y="90" width="60" height="20" as="geometry" />
        </mxCell>
        <mxCell id="wO5dHww1MnmD-yGlkFJn-4" value="주소" style="text;html=1;strokeColor=none;fillColor=none;align=right;verticalAlign=middle;whiteSpace=wrap;rounded=0;fontSize=14;" parent="1" vertex="1">
          <mxGeometry x="30" y="107" width="48" height="20" as="geometry" />
        </mxCell>
        <mxCell id="wO5dHww1MnmD-yGlkFJn-5" value="연락처" style="text;html=1;strokeColor=none;fillColor=none;align=right;verticalAlign=middle;whiteSpace=wrap;rounded=0;fontSize=14;" parent="1" vertex="1">
          <mxGeometry x="33" y="124.5" width="47" height="20" as="geometry" />
        </mxCell>
        <mxCell id="wO5dHww1MnmD-yGlkFJn-6" value="" style="rhombus;whiteSpace=wrap;html=1;align=right;" parent="1" vertex="1">
          <mxGeometry x="257" y="103" width="106" height="54" as="geometry" />
        </mxCell>
        <mxCell id="wO5dHww1MnmD-yGlkFJn-31" value="" style="edgeStyle=orthogonalEdgeStyle;rounded=0;orthogonalLoop=1;jettySize=auto;html=1;" parent="1" target="wO5dHww1MnmD-yGlkFJn-24" edge="1">
          <mxGeometry relative="1" as="geometry">
            <mxPoint x="557" y="130" as="sourcePoint" />
          </mxGeometry>
        </mxCell>
        <mxCell id="wO5dHww1MnmD-yGlkFJn-7" value="" style="rounded=0;whiteSpace=wrap;html=1;" parent="1" vertex="1">
          <mxGeometry x="419" y="100" width="120" height="60" as="geometry" />
        </mxCell>
        <mxCell id="wO5dHww1MnmD-yGlkFJn-8" value="" style="endArrow=none;html=1;exitX=1;exitY=0.5;exitDx=0;exitDy=0;entryX=0;entryY=0.5;entryDx=0;entryDy=0;" parent="1" source="wO5dHww1MnmD-yGlkFJn-1" target="wO5dHww1MnmD-yGlkFJn-6" edge="1">
          <mxGeometry width="50" height="50" relative="1" as="geometry">
            <mxPoint x="354" y="321" as="sourcePoint" />
            <mxPoint x="404" y="271" as="targetPoint" />
          </mxGeometry>
        </mxCell>
        <mxCell id="wO5dHww1MnmD-yGlkFJn-9" value="" style="endArrow=none;html=1;exitX=1;exitY=0.5;exitDx=0;exitDy=0;entryX=0;entryY=0.5;entryDx=0;entryDy=0;" parent="1" source="wO5dHww1MnmD-yGlkFJn-6" target="wO5dHww1MnmD-yGlkFJn-7" edge="1">
          <mxGeometry width="50" height="50" relative="1" as="geometry">
            <mxPoint x="354" y="321" as="sourcePoint" />
            <mxPoint x="404" y="271" as="targetPoint" />
          </mxGeometry>
        </mxCell>
        <mxCell id="wO5dHww1MnmD-yGlkFJn-10" value="&lt;font style=&quot;font-size: 21px&quot;&gt;주문&lt;/font&gt;" style="text;html=1;strokeColor=none;fillColor=none;align=center;verticalAlign=middle;whiteSpace=wrap;rounded=0;" parent="1" vertex="1">
          <mxGeometry x="439" y="110" width="80" height="40" as="geometry" />
        </mxCell>
        <mxCell id="wO5dHww1MnmD-yGlkFJn-11" value="&lt;font style=&quot;font-size: 14px&quot;&gt;1 : N&lt;/font&gt;" style="text;html=1;strokeColor=none;fillColor=none;align=center;verticalAlign=middle;whiteSpace=wrap;rounded=0;" parent="1" vertex="1">
          <mxGeometry x="281.5" y="115.5" width="57" height="29" as="geometry" />
        </mxCell>
        <mxCell id="wO5dHww1MnmD-yGlkFJn-12" value="주문시각&lt;br style=&quot;font-size: 14px;&quot;&gt;고객이름" style="text;html=1;strokeColor=none;fillColor=none;align=right;verticalAlign=middle;whiteSpace=wrap;rounded=0;fontStyle=4;fontSize=14;" parent="1" vertex="1">
          <mxGeometry x="473" y="31" width="66" height="20" as="geometry" />
        </mxCell>
        <mxCell id="wO5dHww1MnmD-yGlkFJn-15" value="거래번호" style="text;html=1;strokeColor=none;fillColor=none;align=right;verticalAlign=middle;whiteSpace=wrap;rounded=0;fontSize=14;" parent="1" vertex="1">
          <mxGeometry x="480" y="54" width="59" height="20" as="geometry" />
        </mxCell>
        <mxCell id="wO5dHww1MnmD-yGlkFJn-17" value="지불방식" style="text;html=1;strokeColor=none;fillColor=none;align=right;verticalAlign=middle;whiteSpace=wrap;rounded=0;fontSize=14;" parent="1" vertex="1">
          <mxGeometry x="480" y="70" width="59" height="20" as="geometry" />
        </mxCell>
        <mxCell id="wO5dHww1MnmD-yGlkFJn-20" value="" style="endArrow=none;html=1;" parent="1" edge="1">
          <mxGeometry width="50" height="50" relative="1" as="geometry">
            <mxPoint x="226" y="147" as="sourcePoint" />
            <mxPoint x="226" y="113" as="targetPoint" />
            <Array as="points">
              <mxPoint x="226" y="140" />
            </Array>
          </mxGeometry>
        </mxCell>
        <mxCell id="wO5dHww1MnmD-yGlkFJn-21" value="" style="endArrow=none;html=1;" parent="1" edge="1">
          <mxGeometry width="50" height="50" relative="1" as="geometry">
            <mxPoint x="388" y="147" as="sourcePoint" />
            <mxPoint x="388" y="113" as="targetPoint" />
            <Array as="points">
              <mxPoint x="388" y="140" />
            </Array>
          </mxGeometry>
        </mxCell>
        <mxCell id="wO5dHww1MnmD-yGlkFJn-22" value="" style="rhombus;whiteSpace=wrap;html=1;align=right;" parent="1" vertex="1">
          <mxGeometry x="598" y="103" width="106" height="54" as="geometry" />
        </mxCell>
        <mxCell id="wO5dHww1MnmD-yGlkFJn-23" value="" style="rounded=1;whiteSpace=wrap;html=1;align=right;" parent="1" vertex="1">
          <mxGeometry x="764" y="100" width="120" height="60" as="geometry" />
        </mxCell>
        <mxCell id="wO5dHww1MnmD-yGlkFJn-24" value="&lt;font style=&quot;font-size: 14px&quot;&gt;1 : N&lt;/font&gt;" style="text;html=1;strokeColor=none;fillColor=none;align=center;verticalAlign=middle;whiteSpace=wrap;rounded=0;" parent="1" vertex="1">
          <mxGeometry x="622.5" y="115.5" width="57" height="29" as="geometry" />
        </mxCell>
        <mxCell id="wO5dHww1MnmD-yGlkFJn-25" value="" style="endArrow=none;html=1;" parent="1" edge="1">
          <mxGeometry width="50" height="50" relative="1" as="geometry">
            <mxPoint x="734" y="147" as="sourcePoint" />
            <mxPoint x="734" y="113" as="targetPoint" />
            <Array as="points">
              <mxPoint x="734" y="140" />
            </Array>
          </mxGeometry>
        </mxCell>
        <mxCell id="wO5dHww1MnmD-yGlkFJn-27" value="" style="endArrow=none;html=1;entryX=0;entryY=0.5;entryDx=0;entryDy=0;" parent="1" target="wO5dHww1MnmD-yGlkFJn-23" edge="1">
          <mxGeometry width="50" height="50" relative="1" as="geometry">
            <mxPoint x="704" y="130" as="sourcePoint" />
            <mxPoint x="760" y="132" as="targetPoint" />
          </mxGeometry>
        </mxCell>
        <mxCell id="wO5dHww1MnmD-yGlkFJn-29" value="" style="endArrow=none;html=1;entryX=0;entryY=0.5;entryDx=0;entryDy=0;exitX=1;exitY=0.5;exitDx=0;exitDy=0;" parent="1" source="wO5dHww1MnmD-yGlkFJn-7" edge="1">
          <mxGeometry width="50" height="50" relative="1" as="geometry">
            <mxPoint x="553" y="130" as="sourcePoint" />
            <mxPoint x="598" y="130" as="targetPoint" />
          </mxGeometry>
        </mxCell>
        <mxCell id="wO5dHww1MnmD-yGlkFJn-30" value="" style="endArrow=none;html=1;" parent="1" edge="1">
          <mxGeometry width="50" height="50" relative="1" as="geometry">
            <mxPoint x="570" y="147" as="sourcePoint" />
            <mxPoint x="570" y="113" as="targetPoint" />
            <Array as="points">
              <mxPoint x="570" y="140" />
            </Array>
          </mxGeometry>
        </mxCell>
        <mxCell id="wO5dHww1MnmD-yGlkFJn-32" value="&lt;span style=&quot;font-size: 21px&quot;&gt;거래 항목&lt;/span&gt;" style="text;html=1;strokeColor=none;fillColor=none;align=center;verticalAlign=middle;whiteSpace=wrap;rounded=0;" parent="1" vertex="1">
          <mxGeometry x="777.5" y="110" width="93" height="40" as="geometry" />
        </mxCell>
        <mxCell id="wO5dHww1MnmD-yGlkFJn-33" value="" style="rhombus;whiteSpace=wrap;html=1;align=right;rotation=150;" parent="1" vertex="1">
          <mxGeometry x="644" y="195" width="106" height="54" as="geometry" />
        </mxCell>
        <mxCell id="wO5dHww1MnmD-yGlkFJn-34" value="&lt;span style=&quot;font-size: 14px&quot;&gt;N:1&lt;br&gt;&lt;/span&gt;" style="text;html=1;strokeColor=none;fillColor=none;align=center;verticalAlign=middle;whiteSpace=wrap;rounded=0;rotation=330;direction=east;" parent="1" vertex="1">
          <mxGeometry x="668.75" y="205.75" width="56.5" height="32.5" as="geometry" />
        </mxCell>
        <mxCell id="wO5dHww1MnmD-yGlkFJn-36" value="" style="endArrow=none;html=1;entryX=0.5;entryY=1;entryDx=0;entryDy=0;exitX=0;exitY=0.5;exitDx=0;exitDy=0;" parent="1" source="wO5dHww1MnmD-yGlkFJn-33" target="wO5dHww1MnmD-yGlkFJn-23" edge="1">
          <mxGeometry width="50" height="50" relative="1" as="geometry">
            <mxPoint x="804" y="214" as="sourcePoint" />
            <mxPoint x="596" y="248" as="targetPoint" />
          </mxGeometry>
        </mxCell>
        <mxCell id="wO5dHww1MnmD-yGlkFJn-37" value="" style="endArrow=none;html=1;" parent="1" edge="1">
          <mxGeometry width="50" height="50" relative="1" as="geometry">
            <mxPoint x="771" y="162" as="sourcePoint" />
            <mxPoint x="794" y="198" as="targetPoint" />
          </mxGeometry>
        </mxCell>
        <mxCell id="wO5dHww1MnmD-yGlkFJn-38" value="" style="endArrow=none;html=1;entryX=1;entryY=0.5;entryDx=0;entryDy=0;" parent="1" target="wO5dHww1MnmD-yGlkFJn-33" edge="1">
          <mxGeometry width="50" height="50" relative="1" as="geometry">
            <mxPoint x="546" y="254" as="sourcePoint" />
            <mxPoint x="824" y="325" as="targetPoint" />
          </mxGeometry>
        </mxCell>
        <mxCell id="wO5dHww1MnmD-yGlkFJn-39" value="" style="endArrow=none;html=1;" parent="1" edge="1">
          <mxGeometry width="50" height="50" relative="1" as="geometry">
            <mxPoint x="563" y="238.25" as="sourcePoint" />
            <mxPoint x="563" y="273" as="targetPoint" />
          </mxGeometry>
        </mxCell>
        <mxCell id="wO5dHww1MnmD-yGlkFJn-40" value="" style="rounded=0;whiteSpace=wrap;html=1;" parent="1" vertex="1">
          <mxGeometry x="425" y="223.75" width="120" height="60" as="geometry" />
        </mxCell>
        <mxCell id="wO5dHww1MnmD-yGlkFJn-41" value="&lt;font style=&quot;font-size: 21px&quot;&gt;메뉴&lt;/font&gt;" style="text;html=1;strokeColor=none;fillColor=none;align=center;verticalAlign=middle;whiteSpace=wrap;rounded=0;" parent="1" vertex="1">
          <mxGeometry x="445" y="233.75" width="80" height="40" as="geometry" />
        </mxCell>
        <mxCell id="wO5dHww1MnmD-yGlkFJn-43" value="" style="edgeStyle=orthogonalEdgeStyle;rounded=0;orthogonalLoop=1;jettySize=auto;html=1;" parent="1" target="wO5dHww1MnmD-yGlkFJn-47" edge="1">
          <mxGeometry relative="1" as="geometry">
            <mxPoint x="218" y="253.75" as="sourcePoint" />
          </mxGeometry>
        </mxCell>
        <mxCell id="wO5dHww1MnmD-yGlkFJn-46" value="" style="rhombus;whiteSpace=wrap;html=1;align=right;" parent="1" vertex="1">
          <mxGeometry x="259" y="226.75" width="106" height="54" as="geometry" />
        </mxCell>
        <mxCell id="wO5dHww1MnmD-yGlkFJn-47" value="&lt;span style=&quot;font-size: 14px&quot;&gt;N : 1&lt;/span&gt;" style="text;html=1;strokeColor=none;fillColor=none;align=center;verticalAlign=middle;whiteSpace=wrap;rounded=0;" parent="1" vertex="1">
          <mxGeometry x="283.5" y="239.25" width="57" height="29" as="geometry" />
        </mxCell>
        <mxCell id="wO5dHww1MnmD-yGlkFJn-48" value="" style="endArrow=none;html=1;" parent="1" edge="1">
          <mxGeometry width="50" height="50" relative="1" as="geometry">
            <mxPoint x="395" y="270.75" as="sourcePoint" />
            <mxPoint x="395" y="236.75" as="targetPoint" />
            <Array as="points">
              <mxPoint x="395" y="263.75" />
            </Array>
          </mxGeometry>
        </mxCell>
        <mxCell id="wO5dHww1MnmD-yGlkFJn-49" value="" style="endArrow=none;html=1;entryX=0;entryY=0.5;entryDx=0;entryDy=0;" parent="1" edge="1">
          <mxGeometry width="50" height="50" relative="1" as="geometry">
            <mxPoint x="365" y="253.75" as="sourcePoint" />
            <mxPoint x="425" y="253.75" as="targetPoint" />
          </mxGeometry>
        </mxCell>
        <mxCell id="wO5dHww1MnmD-yGlkFJn-50" value="" style="endArrow=none;html=1;entryX=0;entryY=0.5;entryDx=0;entryDy=0;exitX=1;exitY=0.5;exitDx=0;exitDy=0;" parent="1" edge="1">
          <mxGeometry width="50" height="50" relative="1" as="geometry">
            <mxPoint x="200" y="253.75" as="sourcePoint" />
            <mxPoint x="259" y="253.75" as="targetPoint" />
          </mxGeometry>
        </mxCell>
        <mxCell id="wO5dHww1MnmD-yGlkFJn-51" value="" style="endArrow=none;html=1;" parent="1" edge="1">
          <mxGeometry width="50" height="50" relative="1" as="geometry">
            <mxPoint x="231" y="270.75" as="sourcePoint" />
            <mxPoint x="231" y="236.75" as="targetPoint" />
            <Array as="points">
              <mxPoint x="231" y="263.75" />
            </Array>
          </mxGeometry>
        </mxCell>
        <mxCell id="wO5dHww1MnmD-yGlkFJn-52" value="" style="rounded=1;whiteSpace=wrap;html=1;align=right;" parent="1" vertex="1">
          <mxGeometry x="80" y="223.75" width="120" height="60" as="geometry" />
        </mxCell>
        <mxCell id="wO5dHww1MnmD-yGlkFJn-53" value="&lt;span style=&quot;font-size: 21px&quot;&gt;레시피&lt;/span&gt;" style="text;html=1;strokeColor=none;fillColor=none;align=center;verticalAlign=middle;whiteSpace=wrap;rounded=0;" parent="1" vertex="1">
          <mxGeometry x="100" y="233.75" width="80" height="40" as="geometry" />
        </mxCell>
        <mxCell id="wO5dHww1MnmD-yGlkFJn-54" value="거래번호&lt;br style=&quot;font-size: 14px;&quot;&gt;메뉴번호" style="text;html=1;strokeColor=none;fillColor=none;align=left;verticalAlign=middle;whiteSpace=wrap;rounded=0;fontStyle=4;fontSize=14;" parent="1" vertex="1">
          <mxGeometry x="884" y="100" width="66" height="20" as="geometry" />
        </mxCell>
        <mxCell id="wO5dHww1MnmD-yGlkFJn-55" value="수량" style="text;html=1;strokeColor=none;fillColor=none;align=left;verticalAlign=middle;whiteSpace=wrap;rounded=0;fontSize=14;" parent="1" vertex="1">
          <mxGeometry x="884" y="124.5" width="59" height="20" as="geometry" />
        </mxCell>
        <mxCell id="wO5dHww1MnmD-yGlkFJn-57" value="메뉴번호" style="text;html=1;strokeColor=none;fillColor=none;align=left;verticalAlign=middle;whiteSpace=wrap;rounded=0;fontStyle=4;fontSize=14;" parent="1" vertex="1">
          <mxGeometry x="547" y="278" width="66" height="20" as="geometry" />
        </mxCell>
        <mxCell id="wO5dHww1MnmD-yGlkFJn-58" value="메뉴이름" style="text;html=1;strokeColor=none;fillColor=none;align=left;verticalAlign=middle;whiteSpace=wrap;rounded=0;fontSize=14;" parent="1" vertex="1">
          <mxGeometry x="547" y="298" width="59" height="20" as="geometry" />
        </mxCell>
        <mxCell id="wO5dHww1MnmD-yGlkFJn-59" value="사이즈" style="text;html=1;strokeColor=none;fillColor=none;align=left;verticalAlign=middle;whiteSpace=wrap;rounded=0;fontSize=14;" parent="1" vertex="1">
          <mxGeometry x="547" y="318" width="59" height="20" as="geometry" />
        </mxCell>
        <mxCell id="wO5dHww1MnmD-yGlkFJn-62" value="가격" style="text;html=1;strokeColor=none;fillColor=none;align=left;verticalAlign=middle;whiteSpace=wrap;rounded=0;fontSize=14;" parent="1" vertex="1">
          <mxGeometry x="547" y="338" width="59" height="20.5" as="geometry" />
        </mxCell>
        <mxCell id="wO5dHww1MnmD-yGlkFJn-63" value="분류" style="text;html=1;strokeColor=none;fillColor=none;align=left;verticalAlign=middle;whiteSpace=wrap;rounded=0;fontSize=14;" parent="1" vertex="1">
          <mxGeometry x="547" y="358.5" width="59" height="20.5" as="geometry" />
        </mxCell>
        <mxCell id="wO5dHww1MnmD-yGlkFJn-64" value="메뉴번호" style="text;html=1;strokeColor=none;fillColor=none;align=right;verticalAlign=middle;whiteSpace=wrap;rounded=0;fontStyle=4;fontSize=14;" parent="1" vertex="1">
          <mxGeometry x="12" y="223.75" width="66" height="20" as="geometry" />
        </mxCell>
        <mxCell id="wO5dHww1MnmD-yGlkFJn-65" value="&lt;u style=&quot;font-size: 14px;&quot;&gt;재료이름&lt;/u&gt;" style="text;html=1;strokeColor=none;fillColor=none;align=right;verticalAlign=middle;whiteSpace=wrap;rounded=0;fontSize=14;" parent="1" vertex="1">
          <mxGeometry x="19" y="243.75" width="59" height="20" as="geometry" />
        </mxCell>
        <mxCell id="wO5dHww1MnmD-yGlkFJn-66" value="재료양" style="text;html=1;strokeColor=none;fillColor=none;align=right;verticalAlign=middle;whiteSpace=wrap;rounded=0;fontSize=14;" parent="1" vertex="1">
          <mxGeometry x="19" y="263.75" width="59" height="20" as="geometry" />
        </mxCell>
        <mxCell id="wO5dHww1MnmD-yGlkFJn-70" value="" style="rhombus;whiteSpace=wrap;html=1;align=right;rotation=37;" parent="1" vertex="1">
          <mxGeometry x="189" y="318" width="106" height="54" as="geometry" />
        </mxCell>
        <mxCell id="wO5dHww1MnmD-yGlkFJn-71" value="&lt;span style=&quot;font-size: 14px&quot;&gt;N : 1&lt;/span&gt;" style="text;html=1;strokeColor=none;fillColor=none;align=center;verticalAlign=middle;whiteSpace=wrap;rounded=0;rotation=37;" parent="1" vertex="1">
          <mxGeometry x="212.64" y="329.88" width="58.37" height="32.13" as="geometry" />
        </mxCell>
        <mxCell id="wO5dHww1MnmD-yGlkFJn-72" value="" style="endArrow=none;html=1;exitX=0;exitY=0.5;exitDx=0;exitDy=0;entryX=0.5;entryY=1;entryDx=0;entryDy=0;" parent="1" source="wO5dHww1MnmD-yGlkFJn-70" target="wO5dHww1MnmD-yGlkFJn-52" edge="1">
          <mxGeometry width="50" height="50" relative="1" as="geometry">
            <mxPoint x="201" y="582" as="sourcePoint" />
            <mxPoint x="479" y="463" as="targetPoint" />
          </mxGeometry>
        </mxCell>
        <mxCell id="wO5dHww1MnmD-yGlkFJn-74" value="" style="endArrow=none;html=1;entryX=1;entryY=0.5;entryDx=0;entryDy=0;exitX=0.5;exitY=0;exitDx=0;exitDy=0;" parent="1" source="wO5dHww1MnmD-yGlkFJn-81" target="wO5dHww1MnmD-yGlkFJn-70" edge="1">
          <mxGeometry width="50" height="50" relative="1" as="geometry">
            <mxPoint x="135.75" y="552" as="sourcePoint" />
            <mxPoint x="135.75" y="492" as="targetPoint" />
          </mxGeometry>
        </mxCell>
        <mxCell id="wO5dHww1MnmD-yGlkFJn-75" value="" style="endArrow=none;html=1;" parent="1" edge="1">
          <mxGeometry width="50" height="50" relative="1" as="geometry">
            <mxPoint x="297" y="396" as="sourcePoint" />
            <mxPoint x="314" y="369" as="targetPoint" />
          </mxGeometry>
        </mxCell>
        <mxCell id="wO5dHww1MnmD-yGlkFJn-78" value="" style="shape=mxgraph.bpmn.shape;html=1;verticalLabelPosition=bottom;labelBackgroundColor=#ffffff;verticalAlign=top;align=center;perimeter=ellipsePerimeter;outlineConnect=0;outline=standard;symbol=general;fillColor=none;rotation=299;direction=west;" parent="1" vertex="1">
          <mxGeometry x="158" y="294" width="29.5" height="12" as="geometry" />
        </mxCell>
        <mxCell id="wO5dHww1MnmD-yGlkFJn-129" value="" style="edgeStyle=orthogonalEdgeStyle;rounded=0;orthogonalLoop=1;jettySize=auto;html=1;" parent="1" source="wO5dHww1MnmD-yGlkFJn-81" target="wO5dHww1MnmD-yGlkFJn-121" edge="1">
          <mxGeometry relative="1" as="geometry" />
        </mxCell>
        <mxCell id="wO5dHww1MnmD-yGlkFJn-81" value="" style="rounded=0;whiteSpace=wrap;html=1;" parent="1" vertex="1">
          <mxGeometry x="275.5" y="398" width="120" height="60" as="geometry" />
        </mxCell>
        <mxCell id="wO5dHww1MnmD-yGlkFJn-82" value="&lt;font style=&quot;font-size: 21px&quot;&gt;재료 재고&lt;/font&gt;" style="text;html=1;strokeColor=none;fillColor=none;align=center;verticalAlign=middle;whiteSpace=wrap;rounded=0;" parent="1" vertex="1">
          <mxGeometry x="286" y="408" width="99" height="40" as="geometry" />
        </mxCell>
        <mxCell id="wO5dHww1MnmD-yGlkFJn-83" value="재료이름" style="text;html=1;strokeColor=none;fillColor=none;align=right;verticalAlign=middle;whiteSpace=wrap;rounded=0;fontStyle=4;fontSize=14;" parent="1" vertex="1">
          <mxGeometry x="207.00000000000006" y="398" width="66" height="20" as="geometry" />
        </mxCell>
        <mxCell id="wO5dHww1MnmD-yGlkFJn-84" value="최소 재고량" style="text;html=1;strokeColor=none;fillColor=none;align=right;verticalAlign=middle;whiteSpace=wrap;rounded=0;fontSize=14;" parent="1" vertex="1">
          <mxGeometry x="182.00000000000006" y="414" width="91" height="21" as="geometry" />
        </mxCell>
        <mxCell id="wO5dHww1MnmD-yGlkFJn-85" value="단위명" style="text;html=1;strokeColor=none;fillColor=none;align=right;verticalAlign=middle;whiteSpace=wrap;rounded=0;fontSize=14;" parent="1" vertex="1">
          <mxGeometry x="214.00000000000006" y="433" width="59" height="20" as="geometry" />
        </mxCell>
        <mxCell id="wO5dHww1MnmD-yGlkFJn-86" value="" style="rhombus;whiteSpace=wrap;html=1;align=right;rotation=131;" parent="1" vertex="1">
          <mxGeometry x="205.75" y="505" width="106" height="54" as="geometry" />
        </mxCell>
        <mxCell id="wO5dHww1MnmD-yGlkFJn-87" value="&lt;span style=&quot;font-size: 14px&quot;&gt;1 : N&lt;/span&gt;" style="text;html=1;strokeColor=none;fillColor=none;align=center;verticalAlign=middle;whiteSpace=wrap;rounded=0;rotation=131;" parent="1" vertex="1">
          <mxGeometry x="230.5" y="515.75" width="56.5" height="32.5" as="geometry" />
        </mxCell>
        <mxCell id="wO5dHww1MnmD-yGlkFJn-88" value="" style="endArrow=none;html=1;exitX=0;exitY=0.5;exitDx=0;exitDy=0;entryX=0.5;entryY=1;entryDx=0;entryDy=0;" parent="1" source="wO5dHww1MnmD-yGlkFJn-86" target="wO5dHww1MnmD-yGlkFJn-81" edge="1">
          <mxGeometry width="50" height="50" relative="1" as="geometry">
            <mxPoint x="57.5" y="600" as="sourcePoint" />
            <mxPoint x="335.5" y="469" as="targetPoint" />
          </mxGeometry>
        </mxCell>
        <mxCell id="wO5dHww1MnmD-yGlkFJn-90" value="" style="endArrow=none;html=1;" parent="1" edge="1">
          <mxGeometry width="50" height="50" relative="1" as="geometry">
            <mxPoint x="299" y="474" as="sourcePoint" />
            <mxPoint x="315" y="489" as="targetPoint" />
          </mxGeometry>
        </mxCell>
        <mxCell id="wO5dHww1MnmD-yGlkFJn-92" value="" style="rounded=0;whiteSpace=wrap;html=1;" parent="1" vertex="1">
          <mxGeometry x="103.5" y="608.5" width="157" height="60" as="geometry" />
        </mxCell>
        <mxCell id="wO5dHww1MnmD-yGlkFJn-93" value="&lt;span style=&quot;font-size: 21px&quot;&gt;공급 업체 재료&lt;/span&gt;" style="text;html=1;strokeColor=none;fillColor=none;align=center;verticalAlign=middle;whiteSpace=wrap;rounded=0;" parent="1" vertex="1">
          <mxGeometry x="107.25" y="618.5" width="149.5" height="40" as="geometry" />
        </mxCell>
        <mxCell id="wO5dHww1MnmD-yGlkFJn-94" value="업체번호" style="text;html=1;strokeColor=none;fillColor=none;align=right;verticalAlign=middle;whiteSpace=wrap;rounded=0;fontStyle=4;fontSize=14;" parent="1" vertex="1">
          <mxGeometry x="30" y="604.75" width="66" height="20" as="geometry" />
        </mxCell>
        <mxCell id="wO5dHww1MnmD-yGlkFJn-95" value="재료이름" style="text;html=1;strokeColor=none;fillColor=none;align=right;verticalAlign=middle;whiteSpace=wrap;rounded=0;fontSize=14;" parent="1" vertex="1">
          <mxGeometry x="30" y="624.75" width="67" height="21.5" as="geometry" />
        </mxCell>
        <mxCell id="wO5dHww1MnmD-yGlkFJn-96" value="납기일" style="text;html=1;strokeColor=none;fillColor=none;align=right;verticalAlign=middle;whiteSpace=wrap;rounded=0;fontSize=14;" parent="1" vertex="1">
          <mxGeometry x="37" y="646.25" width="59" height="20" as="geometry" />
        </mxCell>
        <mxCell id="wO5dHww1MnmD-yGlkFJn-109" value="" style="endArrow=none;html=1;entryX=1;entryY=0.5;entryDx=0;entryDy=0;exitX=0.5;exitY=0;exitDx=0;exitDy=0;" parent="1" source="wO5dHww1MnmD-yGlkFJn-92" edge="1" target="wO5dHww1MnmD-yGlkFJn-86">
          <mxGeometry width="50" height="50" relative="1" as="geometry">
            <mxPoint x="270.25" y="626" as="sourcePoint" />
            <mxPoint x="235.4788714635033" y="558.9996077518067" as="targetPoint" />
          </mxGeometry>
        </mxCell>
        <mxCell id="wO5dHww1MnmD-yGlkFJn-110" value="" style="shape=mxgraph.bpmn.shape;html=1;verticalLabelPosition=bottom;labelBackgroundColor=#ffffff;verticalAlign=top;align=center;perimeter=ellipsePerimeter;outlineConnect=0;outline=standard;symbol=general;fillColor=none;rotation=46;" parent="1" vertex="1">
          <mxGeometry x="198.5" y="574.5" width="29.5" height="12" as="geometry" />
        </mxCell>
        <mxCell id="wO5dHww1MnmD-yGlkFJn-116" value="" style="rhombus;whiteSpace=wrap;html=1;align=right;" parent="1" vertex="1">
          <mxGeometry x="469.5" y="401" width="106" height="54" as="geometry" />
        </mxCell>
        <mxCell id="wO5dHww1MnmD-yGlkFJn-117" value="" style="rounded=0;whiteSpace=wrap;html=1;" parent="1" vertex="1">
          <mxGeometry x="646.5" y="398" width="120" height="60" as="geometry" />
        </mxCell>
        <mxCell id="wO5dHww1MnmD-yGlkFJn-119" value="" style="endArrow=none;html=1;exitX=1;exitY=0.5;exitDx=0;exitDy=0;entryX=0;entryY=0.5;entryDx=0;entryDy=0;" parent="1" source="wO5dHww1MnmD-yGlkFJn-116" target="wO5dHww1MnmD-yGlkFJn-117" edge="1">
          <mxGeometry width="50" height="50" relative="1" as="geometry">
            <mxPoint x="697.75" y="623" as="sourcePoint" />
            <mxPoint x="747.75" y="573" as="targetPoint" />
          </mxGeometry>
        </mxCell>
        <mxCell id="wO5dHww1MnmD-yGlkFJn-120" value="&lt;font style=&quot;font-size: 21px&quot;&gt;납품 기록&lt;/font&gt;" style="text;html=1;strokeColor=none;fillColor=none;align=center;verticalAlign=middle;whiteSpace=wrap;rounded=0;" parent="1" vertex="1">
          <mxGeometry x="653.5" y="408" width="106" height="40" as="geometry" />
        </mxCell>
        <mxCell id="wO5dHww1MnmD-yGlkFJn-121" value="&lt;font style=&quot;font-size: 14px&quot;&gt;1 : N&lt;/font&gt;" style="text;html=1;strokeColor=none;fillColor=none;align=center;verticalAlign=middle;whiteSpace=wrap;rounded=0;" parent="1" vertex="1">
          <mxGeometry x="494" y="413.5" width="57" height="29" as="geometry" />
        </mxCell>
        <mxCell id="wO5dHww1MnmD-yGlkFJn-122" value="납품번호&lt;br style=&quot;font-size: 14px;&quot;&gt;" style="text;html=1;strokeColor=none;fillColor=none;align=left;verticalAlign=middle;whiteSpace=wrap;rounded=0;fontStyle=4;fontSize=14;" parent="1" vertex="1">
          <mxGeometry x="777.5" y="355" width="66" height="25" as="geometry" />
        </mxCell>
        <mxCell id="wO5dHww1MnmD-yGlkFJn-123" value="날짜" style="text;html=1;strokeColor=none;fillColor=none;align=left;verticalAlign=middle;whiteSpace=wrap;rounded=0;fontSize=14;" parent="1" vertex="1">
          <mxGeometry x="777.5" y="379" width="59" height="20" as="geometry" />
        </mxCell>
        <mxCell id="wO5dHww1MnmD-yGlkFJn-124" value="재료" style="text;html=1;strokeColor=none;fillColor=none;align=left;verticalAlign=middle;whiteSpace=wrap;rounded=0;fontSize=14;" parent="1" vertex="1">
          <mxGeometry x="777.5" y="395" width="59" height="20" as="geometry" />
        </mxCell>
        <mxCell id="wO5dHww1MnmD-yGlkFJn-127" value="" style="endArrow=none;html=1;exitX=1;exitY=0.5;exitDx=0;exitDy=0;entryX=0;entryY=0.5;entryDx=0;entryDy=0;" parent="1" edge="1">
          <mxGeometry width="50" height="50" relative="1" as="geometry">
            <mxPoint x="398.5" y="428" as="sourcePoint" />
            <mxPoint x="469.4999999999998" y="428" as="targetPoint" />
          </mxGeometry>
        </mxCell>
        <mxCell id="wO5dHww1MnmD-yGlkFJn-128" value="" style="endArrow=none;html=1;" parent="1" edge="1">
          <mxGeometry width="50" height="50" relative="1" as="geometry">
            <mxPoint x="438.5" y="445" as="sourcePoint" />
            <mxPoint x="438.5" y="410.9999999999998" as="targetPoint" />
            <Array as="points">
              <mxPoint x="438.5" y="438" />
            </Array>
          </mxGeometry>
        </mxCell>
        <mxCell id="wO5dHww1MnmD-yGlkFJn-131" value="" style="shape=mxgraph.bpmn.shape;html=1;verticalLabelPosition=bottom;labelBackgroundColor=#ffffff;verticalAlign=top;align=center;perimeter=ellipsePerimeter;outlineConnect=0;outline=standard;symbol=general;fillColor=none;rotation=90;" parent="1" vertex="1">
          <mxGeometry x="598" y="424" width="29.5" height="12" as="geometry" />
        </mxCell>
        <mxCell id="wO5dHww1MnmD-yGlkFJn-137" value="공급업체번호" style="text;html=1;strokeColor=none;fillColor=none;align=left;verticalAlign=middle;whiteSpace=wrap;rounded=0;fontSize=14;" parent="1" vertex="1">
          <mxGeometry x="777.5" y="413" width="87" height="20" as="geometry" />
        </mxCell>
        <mxCell id="wO5dHww1MnmD-yGlkFJn-138" value="납품량" style="text;html=1;strokeColor=none;fillColor=none;align=left;verticalAlign=middle;whiteSpace=wrap;rounded=0;fontSize=14;" parent="1" vertex="1">
          <mxGeometry x="777.5" y="429" width="59" height="20" as="geometry" />
        </mxCell>
        <mxCell id="wO5dHww1MnmD-yGlkFJn-139" value="단위가격" style="text;html=1;strokeColor=none;fillColor=none;align=left;verticalAlign=middle;whiteSpace=wrap;rounded=0;fontSize=14;" parent="1" vertex="1">
          <mxGeometry x="777.5" y="449" width="59" height="20" as="geometry" />
        </mxCell>
        <mxCell id="wO5dHww1MnmD-yGlkFJn-140" value="유통기한" style="text;html=1;strokeColor=none;fillColor=none;align=left;verticalAlign=middle;whiteSpace=wrap;rounded=0;fontSize=14;" parent="1" vertex="1">
          <mxGeometry x="777.5" y="465" width="59" height="20" as="geometry" />
        </mxCell>
        <mxCell id="wO5dHww1MnmD-yGlkFJn-141" value="" style="rhombus;whiteSpace=wrap;html=1;align=right;rotation=131;" parent="1" vertex="1">
          <mxGeometry x="576.75" y="501" width="106" height="54" as="geometry" />
        </mxCell>
        <mxCell id="wO5dHww1MnmD-yGlkFJn-142" value="&lt;span style=&quot;font-size: 14px&quot;&gt;N : 1&lt;/span&gt;" style="text;html=1;strokeColor=none;fillColor=none;align=center;verticalAlign=middle;whiteSpace=wrap;rounded=0;rotation=131;" parent="1" vertex="1">
          <mxGeometry x="601.5" y="511.75" width="56.5" height="32.5" as="geometry" />
        </mxCell>
        <mxCell id="wO5dHww1MnmD-yGlkFJn-143" value="" style="endArrow=none;html=1;entryX=0.5;entryY=1;entryDx=0;entryDy=0;exitX=0;exitY=0.5;exitDx=0;exitDy=0;" parent="1" source="wO5dHww1MnmD-yGlkFJn-141" edge="1">
          <mxGeometry width="50" height="50" relative="1" as="geometry">
            <mxPoint x="428.5" y="596" as="sourcePoint" />
            <mxPoint x="706.5" y="458" as="targetPoint" />
          </mxGeometry>
        </mxCell>
        <mxCell id="wO5dHww1MnmD-yGlkFJn-144" value="" style="endArrow=none;html=1;" parent="1" edge="1">
          <mxGeometry width="50" height="50" relative="1" as="geometry">
            <mxPoint x="666" y="466" as="sourcePoint" />
            <mxPoint x="687" y="490" as="targetPoint" />
          </mxGeometry>
        </mxCell>
        <mxCell id="wO5dHww1MnmD-yGlkFJn-145" value="" style="endArrow=none;html=1;exitX=0.5;exitY=0;exitDx=0;exitDy=0;entryX=1;entryY=0.5;entryDx=0;entryDy=0;" parent="1" source="wO5dHww1MnmD-yGlkFJn-147" target="wO5dHww1MnmD-yGlkFJn-141" edge="1">
          <mxGeometry width="50" height="50" relative="1" as="geometry">
            <mxPoint x="641.25" y="632" as="sourcePoint" />
            <mxPoint x="596" y="575" as="targetPoint" />
          </mxGeometry>
        </mxCell>
        <mxCell id="wO5dHww1MnmD-yGlkFJn-146" value="" style="endArrow=none;html=1;" parent="1" edge="1">
          <mxGeometry width="50" height="50" relative="1" as="geometry">
            <mxPoint x="566.5" y="573" as="sourcePoint" />
            <mxPoint x="589.5" y="593" as="targetPoint" />
          </mxGeometry>
        </mxCell>
        <mxCell id="wO5dHww1MnmD-yGlkFJn-147" value="" style="rounded=0;whiteSpace=wrap;html=1;" parent="1" vertex="1">
          <mxGeometry x="493" y="609.25" width="120" height="60" as="geometry" />
        </mxCell>
        <mxCell id="wO5dHww1MnmD-yGlkFJn-148" value="&lt;font style=&quot;font-size: 21px&quot;&gt;공급업체&lt;/font&gt;" style="text;html=1;strokeColor=none;fillColor=none;align=center;verticalAlign=middle;whiteSpace=wrap;rounded=0;" parent="1" vertex="1">
          <mxGeometry x="509.5" y="619.25" width="87" height="40" as="geometry" />
        </mxCell>
        <mxCell id="wO5dHww1MnmD-yGlkFJn-163" value="" style="edgeStyle=orthogonalEdgeStyle;rounded=0;orthogonalLoop=1;jettySize=auto;html=1;" parent="1" target="wO5dHww1MnmD-yGlkFJn-165" edge="1">
          <mxGeometry relative="1" as="geometry">
            <mxPoint x="286" y="639.25" as="sourcePoint" />
          </mxGeometry>
        </mxCell>
        <mxCell id="wO5dHww1MnmD-yGlkFJn-164" value="" style="rhombus;whiteSpace=wrap;html=1;align=right;" parent="1" vertex="1">
          <mxGeometry x="327" y="612.25" width="106" height="54" as="geometry" />
        </mxCell>
        <mxCell id="wO5dHww1MnmD-yGlkFJn-165" value="&lt;span style=&quot;font-size: 14px&quot;&gt;N : 1&lt;/span&gt;" style="text;html=1;strokeColor=none;fillColor=none;align=center;verticalAlign=middle;whiteSpace=wrap;rounded=0;" parent="1" vertex="1">
          <mxGeometry x="351.5" y="624.75" width="57" height="29" as="geometry" />
        </mxCell>
        <mxCell id="wO5dHww1MnmD-yGlkFJn-166" value="" style="endArrow=none;html=1;" parent="1" edge="1">
          <mxGeometry width="50" height="50" relative="1" as="geometry">
            <mxPoint x="463" y="656.25" as="sourcePoint" />
            <mxPoint x="463" y="622.25" as="targetPoint" />
            <Array as="points">
              <mxPoint x="463" y="649.25" />
            </Array>
          </mxGeometry>
        </mxCell>
        <mxCell id="wO5dHww1MnmD-yGlkFJn-167" value="" style="endArrow=none;html=1;entryX=0;entryY=0.5;entryDx=0;entryDy=0;" parent="1" edge="1">
          <mxGeometry width="50" height="50" relative="1" as="geometry">
            <mxPoint x="433" y="639.25" as="sourcePoint" />
            <mxPoint x="493" y="639.25" as="targetPoint" />
          </mxGeometry>
        </mxCell>
        <mxCell id="wO5dHww1MnmD-yGlkFJn-168" value="" style="endArrow=none;html=1;entryX=0;entryY=0.5;entryDx=0;entryDy=0;exitX=1;exitY=0.5;exitDx=0;exitDy=0;" parent="1" source="wO5dHww1MnmD-yGlkFJn-93" edge="1">
          <mxGeometry width="50" height="50" relative="1" as="geometry">
            <mxPoint x="283" y="639" as="sourcePoint" />
            <mxPoint x="327" y="639.25" as="targetPoint" />
          </mxGeometry>
        </mxCell>
        <mxCell id="wO5dHww1MnmD-yGlkFJn-169" value="" style="endArrow=none;html=1;" parent="1" edge="1">
          <mxGeometry width="50" height="50" relative="1" as="geometry">
            <mxPoint x="290.9999999999998" y="655.5" as="sourcePoint" />
            <mxPoint x="290.9999999999998" y="621.5" as="targetPoint" />
            <Array as="points">
              <mxPoint x="291" y="648.5" />
            </Array>
          </mxGeometry>
        </mxCell>
      </root>
    </mxGraphModel>
  </diagram>
</mxfile>
